<svg width="1200" height="600" viewBox="0 0 1200 600" xmlns="http://www.w3.org/2000/svg" role="img" aria-labelledby="title desc">
  <title id="title">Services</title>
  <desc id="desc">We offer...</desc>

  <rect x="0" y="0" width="1200" height="600" fill="none"/>

  <!-- Soft backdrop blobs -->
  <path d="M300,360 C220,260 300,180 420,200 C520,216 560,300 520,360 C480,420 380,440 300,360 Z" fill="#111827"/>
  <path d="M860,420 C780,340 820,240 930,250 C1040,260 1100,360 1060,440 C1020,520 940,500 860,420 Z" fill="#1f2937"/>

  <!-- Title ribbon -->
  <path d="M160,140 H520" stroke="#3b82f6" stroke-width="6" stroke-linecap="round" fill="none"/>
  <path d="M160,170 H440" stroke="#22c55e" stroke-width="4" stroke-linecap="round" fill="none" opacity="0.85"/>

  <!-- Card grid -->
  <g fill="none" stroke="#9ca3af" stroke-width="2.5">
    <rect x="160" y="220" width="240" height="120" rx="16"/>
    <rect x="420" y="220" width="240" height="120" rx="16"/>
    <rect x="680" y="220" width="240" height="120" rx="16"/>
    <rect x="160" y="360" width="240" height="120" rx="16"/>
    <rect x="420" y="360" width="240" height="120" rx="16"/>
    <rect x="680" y="360" width="240" height="120" rx="16"/>
  </g>

  <!-- Abstract icons per card -->
  <g transform="translate(180,250)">
    <rect x="0" y="0" width="80" height="60" rx="10" fill="none" stroke="#ffffff" stroke-width="2.5"/>
    <rect x="0" y="0" width="80" height="16" rx="8" fill="#3b82f6"/>
    <circle cx="12" cy="8" r="3" fill="#0f0f12"/>
    <circle cx="24" cy="8" r="3" fill="#0f0f12"/>
  </g>

  <g transform="translate(460,250)">
    <rect x="0" y="0" width="60" height="60" rx="10" fill="none" stroke="#ffffff" stroke-width="2.5"/>
    <circle cx="30" cy="8" r="3" fill="#22c55e"/>
    <rect x="14" y="18" width="32" height="28" rx="6" fill="none" stroke="#9ca3af" stroke-width="2"/>
    <rect x="22" y="48" width="16" height="4" rx="2" fill="#9ca3af"/>
  </g>

  <g transform="translate(720,250)">
    <rect x="0" y="0" width="80" height="18" rx="4" fill="none" stroke="#ffffff" stroke-width="2.5"/>
    <rect x="0" y="24" width="80" height="18" rx="4" fill="none" stroke="#ffffff" stroke-width="2.5"/>
    <rect x="0" y="48" width="80" height="4" rx="2" fill="#ef4444"/>
    <g transform="translate(96,4)">
      <rect x="0" y="0" width="42" height="32" rx="6" fill="none" stroke="#9ca3af" stroke-width="2.5"/>
      <path d="M8,16 v-6 a10,10 0 0 1 20,0 v6" stroke="#ef4444" stroke-width="2.5" fill="none"/>
      <rect x="8" y="16" width="24" height="12" rx="3" fill="none" stroke="#ffffff" stroke-width="2"/>
    </g>
  </g>

  <g transform="translate(180,390)">
    <rect x="0" y="0" width="96" height="20" rx="8" fill="#f59e0b"/>
    <rect x="0" y="26" width="44" height="28" rx="6" fill="none" stroke="#9ca3af" stroke-width="2"/>
    <rect x="52" y="26" width="44" height="28" rx="6" fill="none" stroke="#9ca3af" stroke-width="2"/>
  </g>

  <g transform="translate(460,390)">
    <line x1="0" y1="0" x2="96" y2="0" stroke="#22c55e" stroke-width="3"/>
    <circle cx="36" cy="0" r="6" fill="#22c55e"/>
    <line x1="0" y1="22" x2="96" y2="22" stroke="#3b82f6" stroke-width="3"/>
    <circle cx="64" cy="22" r="6" fill="#3b82f6"/>
    <line x1="0" y1="44" x2="96" y2="44" stroke="#ef4444" stroke-width="3"/>
    <circle cx="20" cy="44" r="6" fill="#ef4444"/>
  </g>

  <g transform="translate(720,390)">
    <rect x="0" y="0" width="44" height="28" rx="6" fill="none" stroke="#ffffff" stroke-width="2.5"/>
    <circle cx="22" cy="-4" r="6" fill="#3b82f6"/>
    <rect x="52" y="0" width="44" height="28" rx="6" fill="none" stroke="#ffffff" stroke-width="2.5"/>
    <circle cx="74" cy="32" r="6" fill="#22c55e"/>
  </g>
</svg>
